<?xml version="1.0" encoding="UTF-8" standalone="no"?>
<svg
   xmlns:dc="http://purl.org/dc/elements/1.1/"
   xmlns:cc="http://creativecommons.org/ns#"
   xmlns:rdf="http://www.w3.org/1999/02/22-rdf-syntax-ns#"
   xmlns:svg="http://www.w3.org/2000/svg"
   xmlns="http://www.w3.org/2000/svg"
   xmlns:xlink="http://www.w3.org/1999/xlink"
   xmlns:sodipodi="http://sodipodi.sourceforge.net/DTD/sodipodi-0.dtd"
   xmlns:inkscape="http://www.inkscape.org/namespaces/inkscape"
   width="950"
   height="700"
   version="1.1"
   id="svg3739"
   sodipodi:docname="black-lion-2.svg"
   inkscape:version="0.92.3 (2405546, 2018-03-11)">
  <metadata
     id="metadata3745">
    <rdf:RDF>
      <cc:Work
         rdf:about="">
        <dc:format>image/svg+xml</dc:format>
        <dc:type
           rdf:resource="http://purl.org/dc/dcmitype/StillImage" />
      </cc:Work>
    </rdf:RDF>
  </metadata>
  <defs
     id="defs3743" />
  <sodipodi:namedview
     pagecolor="#ffffff"
     bordercolor="#666666"
     borderopacity="1"
     objecttolerance="10"
     gridtolerance="10"
     guidetolerance="10"
     inkscape:pageopacity="0"
     inkscape:pageshadow="2"
     inkscape:window-width="3240"
     inkscape:window-height="2035"
     id="namedview3741"
     showgrid="false"
     inkscape:zoom="2.4685714"
     inkscape:cx="475"
     inkscape:cy="350"
     inkscape:window-x="-13"
     inkscape:window-y="-13"
     inkscape:window-maximized="1"
     inkscape:current-layer="svg3739" />
  <title
     id="title3730">black lion 2</title>
  <symbol
     viewBox="-102.46 -150.23 204.919 300.46"
     id="Regal_Vector_Pack_16">
    <path
       id="svg_1"
       d="m-54.812,-24.25c0.656002,-1.461 1.161999,-3.896 -0.971001,-6.336c0,0 5.289001,2.326 3.711002,7.207001c1.153999,0.823999 1.574997,2.167999 0.907997,3.834c2.909,0.148001 5.926003,0.379 8.936001,0.723c-2.827999,0.914 -4.515999,2.496 -4.613998,2.59l-4.117001,3.951l5.500999,-1.52c1.050999,-0.291 2.170002,-0.438001 3.323002,-0.438001c7.195999,0 14.727999,5.732 16.164999,10.48c0.577999,1.908 0.108999,3.334 -1.432001,4.359c-1.848,1.234 -3.864,1.857 -5.993999,1.857c-4.827999,0 -8.764999,-3.178 -8.803001,-3.211l-5.147999,-4.221l2.936001,5.969c1.038998,2.113 2.486,3.842 4.278999,5.152c-1.150002,-0.258 -2.418999,-0.582 -3.816002,-0.969c-4.533997,-3.575 -11.522999,-8.277 -19.221996,-10.476c-3.584,-0.299 -8.596001,0.389 -11.375,5.658c-2.123001,4.029 -5.048004,4.607 -7.264,3.562c-2.813004,2.275 -7.693001,4.691 -12.778,0.127c0,0 5.103996,3.061 10.352997,-2.359c-0.938995,-1.582 -1.121002,-3.605 0.069,-5.336c1.021004,-1.486 2.569,-3.092 4.524002,-4.51c-0.888,0.460999 -1.767998,1.087999 -2.619003,1.914c-3.264999,3.172 -6.224998,2.816 -8.009995,1.141c-3.379005,1.291 -8.768005,2.082 -12.190002,-3.834c0,0 3.906998,4.49 10.574997,0.959c-0.403,-1.795 0.049004,-3.775 1.717003,-5.052999c2.048996,-1.572001 5.198997,-3.043 8.851997,-3.664001c-0.903999,0.016001 -1.859001,0.146 -2.876999,0.436001c-4.379997,1.242 -6.816002,-0.477001 -7.589996,-2.801001c-3.587006,-0.466999 -8.705002,-2.33 -8.910004,-9.16c0,0 1.308998,5.805 8.854004,5.865c0.495995,-1.771 1.834,-3.301001 3.908997,-3.632999c0.134003,-0.023001 0.276001,-0.035 0.413002,-0.055c1.354996,-0.416 3.305,-0.414 5.445999,-0.125c0.502998,-1.033001 6.947998,-2.049 11.334999,2.636999c1.723,1.84 3.311996,2.613001 4.675003,2.824001c0.209999,0.004 0.414993,-0.002001 0.614998,-0.02c0.840996,-0.273001 1.712997,-0.664 2.605999,-1.201c3.009998,-1.805 5.860001,-2.479 8.028,-2.323zm-11.836002,93.505997c-1.520996,-1.034996 -2.544998,-2.791 -2.200996,-4.862999c0.021996,-0.134995 0.055,-0.272995 0.080002,-0.407997c0.035995,-1.420002 0.657997,-3.265999 1.612999,-5.202999c-0.82,-0.807003 0.265999,-7.240002 6.101997,-9.91c2.292,-1.049 3.531002,-2.311001 4.165001,-3.533001c0.069,-0.199001 0.127998,-0.396 0.176998,-0.591999c0.008003,-0.885002 -0.086998,-1.834003 -0.311996,-2.854c-0.756001,-3.426003 -0.489002,-6.344002 0.346996,-8.348003c-1.175999,-1.087997 -3.323997,-2.341999 -6.313999,-1.093998c0,0 3.887001,-4.275 8.014,-1.229c1.148003,-0.832001 2.555,-0.805 3.924,0.357c1.236,-3.152 2.629002,-6.404001 4.158001,-9.57c3.376999,3.271 7.91,5.581999 13.760002,7.015999c3.507998,0.859001 7.236998,1.336 10.919998,1.648001c-4.617001,2.710999 -13.534,8.640999 -19.146,16.818001c-1.424,3.302998 -2.362999,8.271 1.75,12.582001c3.145,3.294998 2.763,6.251995 1.067001,8.021c1.263,3.389 2.004997,8.784996 -3.940002,12.153999c0,0 4.525002,-3.867004 1.054001,-10.564003c-1.799999,0.387001 -3.773998,-0.084 -5.037998,-1.764c-1.084,-1.438995 -2.113003,-3.417999 -2.838001,-5.724998c0.155998,0.990002 0.468998,2.023003 0.984001,3.094002c1.968998,4.103996 0.690998,6.796997 -1.469002,7.956001c0.153,3.613998 -0.812,8.975998 -7.506001,10.340996c0,0 5.498001,-2.278999 4.27,-9.723c-1.831001,-0.187996 -3.563999,-1.245003 -4.245998,-3.232002c-0.838001,-2.442993 -1.232002,-5.895996 -0.66,-9.558998c-0.271,0.863003 -0.453003,1.812 -0.502003,2.867001c-0.215,4.549 -2.616997,6.311001 -5.067997,6.305004c-1.582001,3.253998 -4.974998,7.514999 -11.515999,5.536995c-0.002007,0.001999 5.917,0.608002 8.370995,-6.525002zm158.531006,30.088005c2.202995,2.210999 5.831993,4.177002 10.575996,0.922997c0,0 -2.07,5.283005 -9.691002,5.159004c0,0 16.443001,5.975998 -4.550995,44.803993c0,0 -14.512001,-30.137993 -5.162003,-44.112c0,0 -3.601997,3.125 -8.503998,-1.500999c0,0 8.332001,-0.564995 11.091995,-8.311996c0.001999,-0.162003 0.008003,-0.328003 0.008003,-0.489998c0.001999,-12.428001 -5.578003,-22.186005 -12.622002,-33.029003c-1.035995,-1.598 -2.102997,-3.218998 -3.182999,-4.868999c-1.080002,1.650002 -2.148003,3.271 -3.183998,4.868999c-7.043003,10.843998 -12.625004,20.602001 -12.621002,33.029003c0,0.337997 0.006001,0.681 0.014999,1.022995c2.944,7.234001 10.882004,7.778 10.882004,7.778c-4.903004,4.625999 -8.502003,1.500999 -8.502003,1.500999c9.350002,13.975006 -5.164001,44.112007 -5.164001,44.112007c-20.993999,-38.828003 -4.549,-44.804001 -4.549,-44.804001c-7.621998,0.124001 -9.690998,-5.159004 -9.690998,-5.159004c4.666,3.202003 8.250999,1.351997 10.462997,-0.812996c-1.618999,0.515999 -3.966999,0.446999 -6.993999,-1.764c0,0 6.255001,1.682999 8.179001,-5.773003c0.801998,-3.104004 2.021999,-7.209999 3.761002,-11.604004c2.480999,-7.021996 6.389,-13.411995 10.589996,-19.881996c1.389999,-2.139 2.814003,-4.292999 4.240005,-6.487999c-5.434002,-8.5 -10.886005,-18.002003 -14.339005,-29.887001c-2.286999,-7.873001 -3.222,-14.852 -3.222,-20.986c-0.006001,-12.789 4.086002,-21.887001 8.219002,-27.722999c1.302998,-1.842001 2.603001,-3.354 3.779999,-4.574001c-1.660999,-0.519999 -3.563,-2.071999 -5.253998,-5.846001c0,0 5.463997,1.582001 9.334999,-2.696999c-0.865997,-4.992001 -2.459999,-8.050999 -4.136002,-9.854c-1.135998,-1.224998 -2.336998,-1.977001 -3.662998,-2.477001c-1.322002,-0.493999 -2.787003,-0.715 -4.315002,-0.715c-2.174999,-0.006001 -4.447998,0.461002 -6.383999,1.049c-1.950001,9.268002 -13.942001,16.780003 -22.905001,21.428001c-10.442999,5.414 -12.561999,14.176001 -9.114999,23.967c0.848001,-1.998 1.735999,-3.766 2.502,-5.085999c3.969,-6.855 10.222,-3.729 10.222,-3.729c-6.495001,1.802999 -5.291,5.531 -4.569,15.033c0.188,2.475 -0.01,4.66 -0.402,6.547c0.348,-0.686 0.686001,-1.311 1.003,-1.857c3.969,-6.855 10.222,-3.729 10.222,-3.729c-6.493999,1.805 -5.291,5.531 -4.57,15.031c0.153999,2.027 0.051001,3.858999 -0.207001,5.492001c0.152,-0.281 0.302999,-0.551001 0.448,-0.801001c3.968,-6.855 10.223001,-3.729 10.223001,-3.729c-6.493999,1.802999 -5.292,5.531 -4.570999,15.033001c0.024998,0.32 0.042999,0.634998 0.053997,0.945c3.263,-1.57 6.440002,0.015999 6.440002,0.015999c-6.493999,1.803001 -5.291,5.533001 -4.568001,15.031002c0.556999,7.335999 -2.256001,12.16 -3.566002,13.979c5,1.536995 7.260002,5.729996 3.123001,8.550995c-3.389,2.311005 -6.886999,2.25 -9.608999,1.566002c3.139999,2.338005 2.716999,5.167 2.716999,5.167c-7.536999,-6.733002 -15.073,-6.573997 -22.448999,-4.168999c-7.379,2.405998 -14.915,2.889 -14.754,-2.403c0.002,-0.051003 0.011,-0.098 0.014,-0.148003c-2.656,-0.477997 -9.562,-2.472 -14.767,-10.594997c0,0 1.924999,0.16 3.368,-2.245998c1.442999,-2.403999 -1.443001,-8.176003 7.054999,-10.900002c0,0 -2.243999,1.762001 0.160001,3.688c2.405,1.922001 7.056,-2.408001 12.988,3.686001c0,0 -0.963,-3.207001 -2.566,-3.848c0,0 4.33,-6.895 -1.122,-12.987999c0,0 1.122,1.605 0.161,3.206997s-3.369,-2.403999 -8.498,0.801003c0,0 -5.453,-2.887001 -3.207,-10.420002c0,0 0.641,1.922001 2.564,2.887001c1.925,0.959 8.499,-3.688999 13.951,1.120998c0.373,0.328003 0.791,0.648003 1.24,0.963001c0.639,-2.361 0.252,-6.375 -9.098,-7.376999c-13.468999,-1.443001 -33.993001,0.640999 -43.292001,-11.867001c0,0 5.771,5.452999 13.788002,4.172001c0,0 -5.771,-0.322001 -10.742001,-3.85s-10.742001,-8.178 -16.355,-4.490001c0,0 4.008999,-6.252 13.469997,-1.604c0,0 -12.988998,-8.979 -21.645996,-2.564c0,0 4.328995,-10.102 18.438,-5.612999c14.111,4.49 18.599998,4.810999 25.013998,2.727c0,0 -12.185999,2.887 -16.996,-6.896c0,0 8.338001,6.896 16.516001,1.443c8.177999,-5.449 -7.056002,-20.360999 -19.240999,-16.994c0,0 4.008999,-3.848001 10.103001,-2.566001c0,0 -6.896,-16.675999 8.175999,-18.599998c0,0 -10.582001,6.414 -0.641001,16.995998c0,0 -5.610998,-10.261999 3.047001,-12.345999c0,0 -3.477001,3.379 1.310999,8.965c-3.786999,-8.605001 11.004001,-14.508001 20.695001,-16.660002c11.906,-2.646 22.488,-9.261997 22.488,-9.261997c-1.959,-5.59 -1.52,-10.832001 0.461,-14.719002c-0.336,-0.457001 -0.720001,-0.997997 -1.132999,-1.632999c-3.311001,-3.691002 -9.554001,-12.535004 -6.303,-24.094002c4.329999,-15.394997 2.084999,-22.609001 2.084999,-22.609001s3.827001,3.830002 3.845,10.693001c-0.025,-0.875 -0.209,-13.655998 11.868999,-15.821999c0,0 -6.894999,2.885002 -7.216999,12.823997c0,0 4.008999,-11.382996 18.438999,-4.968994c0,0 -8.568001,0.356995 -12,5.134995c3.299,-1.792999 10.428001,-4.101997 18.574001,2.883003c0,0 -5.727001,-1.226997 -10.483002,0.568001c7.548,1.700996 14.292,7.094002 16.896999,10.653999c3.385002,4.626999 9.938,0.116997 11.015003,-7.709c-0.607002,-6.162003 -2.952003,-17.277 -11.978001,-17.625c-9.705002,-0.375 -14.098,-0.941002 -15.653999,-3.949005c-2.652,-0.401993 -10.236002,-2.389 -9.839001,-11.925995c0,0 1.309,6.659996 9.343998,7.371002c0.764999,-2.221001 3.678001,-3.650002 7.509003,-3.523003c-1.498001,-1.112999 -2.711002,-2.359001 -3.224003,-3.685997c-0.473999,-1.223007 -0.459999,-2.453003 -0.053997,-3.512009c-1.751003,-2.30899 -5.483002,-8.729996 1.105,-15.224991c0,0 -3.832001,6.151993 2.374001,12.36499c2.248997,-0.479996 5.327,0.303009 8.760998,3.324005c0.476002,0.417999 0.928001,0.837997 1.361,1.253998c-0.294998,-1.175995 -0.451,-2.354996 -0.399998,-3.5c0.093998,-2.030991 1.025997,-3.261993 2.339996,-3.765991c0.291,-3.129013 1.949001,-9.785004 10.741005,-10.373001c0,0 -6.904003,2.155991 -6.274002,10.89299c2.444,1.266006 4.754997,4.029007 5.380997,8.059006c1.442001,9.298996 10.902,20.683998 18.599998,21.644997c0,0 -2.245995,2.244003 -6.093994,1.926003c0,0 5.611,3.685997 11.704994,-3.527c0,0 -0.479996,6.734001 -8.337997,8.498001c0,0 4.971001,1.121002 6.734001,3.848c0,0 -8.453003,8.782997 -2.755997,26.803001c2.875,-2.174004 4.68,-6.439003 4.68,-6.439003c-1.123001,19.402 -15.232002,17.637001 -15.232002,17.637001c1.923996,1.765999 7.376999,2.084 7.376999,2.084c-13.737,2.474998 -23.170002,-4.501999 -26.763,-7.814003c-2.429001,-1.700996 -5.127998,-3.741997 -8.193001,-6.134995c-9.751999,-7.605003 -13.334999,-2.045006 -11.833,4.707001c1.946003,1.093994 3.932003,2.681999 5.900002,4.831997c1.772999,1.941002 3.007,3.835999 3.797001,5.688c2.140999,-0.558998 4.591999,-0.979 7.214001,-0.984001c2.254997,0 4.648998,0.32 7.010998,1.203003c3.549999,1.300999 6.940998,3.983997 9.281002,8.118999c1.640999,2.876999 2.823997,6.399998 3.507996,10.704998c3.879005,5.167999 9.931999,3.412003 9.931999,3.412003c-1.736,3.876999 -3.696999,5.409998 -5.390999,5.884998c1.167999,1.215 2.453003,2.712999 3.744003,4.535c4.132996,5.836 8.224998,14.934 8.216995,27.723001c0,6.135 -0.933998,13.113 -3.220993,20.985999c-3.453003,11.885002 -8.904007,21.387001 -14.338005,29.887001c1.426003,2.195 2.849998,4.349998 4.240005,6.487999c4.206993,6.482002 8.122993,12.886002 10.604996,19.923004c1.730003,4.378998 2.945,8.469994 3.742004,11.562996c1.925995,7.456001 8.177994,5.773003 8.177994,5.773003c-3.223999,2.353996 -5.679001,2.278 -7.301994,1.653zm-61.403004,-31.479004c2.357002,1.611 2.302002,2.768005 0.941,3.417999c2.277002,-0.378998 3.621,-1.218994 2.906,-2.454994c-1.431999,-2.473 -5.395,-2.729004 -8.638,-2.564003c1.602001,0.085999 3.241001,0.542999 4.791,1.600998zm-33.832999,-0.159996c0,0 5.291,1.764 10.583,0c5.291,-1.762001 8.498,-0.963005 8.498,-0.963005s-2.887,-3.847996 -8.018,-3.847996c-5.129,0.000999 -1.442,4.970997 -11.063,4.811001zm85.952998,-44.857002c2.186005,-7.52 3.051003,-14.084 3.051003,-19.779c-0.006004,-11.492 -3.508003,-19.479 -7.080002,-24.725c-1.426003,-2.094 -2.866997,-3.74 -4.103996,-4.976999c-0.383003,1.424 -1.318001,2.997999 -3.290001,4.497999c0,0 0.471001,-3.676001 -1.122002,-6.934l-0.246002,0c-1.591995,3.257999 -1.120995,6.934 -1.120995,6.934c-2.035004,-1.549 -2.965004,-3.176001 -3.324005,-4.636999c-1.266998,1.251999 -2.761997,2.941 -4.244999,5.115c-3.569,5.246 -7.070999,13.231999 -7.077,24.725c0,5.695 0.865002,12.26 3.049999,19.779c3.058002,10.539001 7.792004,19.164001 12.755001,27.071999c4.963997,-7.906998 9.694,-16.531998 12.752998,-27.070999zm-72.089998,-112.478996c-1.006001,3.575996 -1.16,6.913994 -0.795,9.945c-1.561,0.606995 -3.229,1.237999 -5.018,1.899994c-18.272,6.766006 -0.699,17.693005 10.668,11.760002c0.644001,0.871002 1.250999,1.601997 1.768,2.184002c0.147001,0.223 0.297001,0.445 0.449001,0.666c-1.691001,4.014 -1.883,8.854 -0.541,13.631001c-1.729,0.987999 -5.093,2.806999 -9.303,4.571999c-2.441,-0.612999 -5.188,-1.772999 -8.271,-3.618999c0,0 -1.543,0.285 -3.93,0.337997c-4.881,0.877003 -15.687999,1.533001 -23.809,-7.308998c-10.815002,-11.779003 -18.132999,-13.663998 -18.132999,-13.663998s5.139,-1.209 10.897999,2.221001c-1.719002,-1.057007 -11.254002,-7.510002 -7,-18.283005c0,0 -1.170002,7.381004 7.116001,12.883003c0,0 -7.574001,-9.396004 5.469999,-18.297005c0,0 -4.201002,7.475006 -1.943001,12.906006c0.211,-3.748001 1.996,-11.025002 12.221001,-14.283005c0,0 -4.052999,4.227005 -5.029001,9.217003c5.416,-5.523003 13.549001,-8.424004 17.947001,-8.770004c5.716,-0.445 5.326,-8.389 -0.762,-13.419998c-5.562,-2.726997 -16.25,-6.577995 -21.291,0.916c-5.423,8.061005 -8.216999,11.498001 -11.591999,11.237999c-1.738003,2.045006 -7.417999,7.449005 -15.316002,2.098c0,0 6.352001,2.390999 11.18,-4.071999c-1.484001,-1.816002 -1.171001,-5.046997 0.952999,-8.237999c-1.734997,0.688004 -3.431999,1.064003 -4.829998,0.803001c-1.289001,-0.239998 -2.329002,-0.900002 -3.015999,-1.803001c-2.883003,0.278999 -10.310001,0.073997 -12.367001,-8.945c0,0 3.219997,6.494003 11.765999,4.482002c0.773998,-2.164001 3.061001,-4.369003 7.435001,-5.701004c0.605999,-0.185997 1.199997,-0.349998 1.781998,-0.498001c-1.153999,-0.368996 -2.239998,-0.854996 -3.186001,-1.5c-1.679996,-1.147995 -2.233997,-2.589996 -1.973,-3.971001c-2.507999,-1.895996 -7.299,-6.805 -3.174999,-14.593994c0,0 -1.797001,7.007996 5.966,11.065994c2.362,-1.411995 5.926003,-1.925995 9.681999,-0.337997c8.669003,3.664001 23.328002,1.604004 28.193002,-4.436005c0,0 0.729,3.088005 -1.568,6.195007c0,0 6.088,-2.835999 3.155,-11.813995c0,0 5.476,3.952988 2.843,11.561996c0,0 3.57,-3.637001 6.815,-3.703003c0,0 1.024,3.971001 5.451999,8.209c0.596001,-1.359001 0.534,-2.764 0.534,-2.764c3.377,6.357002 3.493,12.771004 3.092,16.736c-0.158999,3.494003 -0.797,8.305 -2.537,14.494003zm-25.086,132.962997c9.139,4.09 14.19,3.006001 14.19,3.006001c-7.577,2.286999 -15.031,-1.682003 -22.607999,-3.484001c-7.576,-1.805 -10.702,2.283001 -10.702,2.283001c2.644999,-5.891003 9.980999,-5.891003 19.119999,-1.805z"
       fill="#231F20" />
  </symbol>
  <g
     id="g3737"
     transform="rotate(-90,477.25931,338.82933)">
    <title
       id="title3734">Layer 1</title>
    <use
       id="svg_2"
       transform="matrix(0,3.28215,3.15284,0,364.407,1095.785)"
       y="-114.43514"
       x="-333.08749"
       height="300.45999"
       width="204.91901"
       xlink:href="#Regal_Vector_Pack_16" />
  </g>
</svg>
